<svg width="400" height="400" viewBox="0 0 400 400" xmlns="http://www.w3.org/2000/svg">
  <rect width="400" height="400" fill="#FFF8E7" rx="20"/>
  <defs>
    <linearGradient id="tailGrad" x1="0%" y1="0%" x2="100%" y2="100%">
      <stop offset="0%" stop-color="#FF8C42"/>
      <stop offset="100%" stop-color="#FFD700"/>
    </linearGradient>
  </defs>
  <g fill="url(#tailGrad)" opacity="0.9">
    <path d="M200 230 L140 270 L160 220 Z" transform="rotate(-80,200,200)"/>
    <path d="M200 230 L130 260 L150 210 Z" transform="rotate(-60,200,200)"/>
    <path d="M200 230 L120 240 L140 190 Z" transform="rotate(-40,200,200)"/>
    <path d="M200 230 L110 220 L130 170 Z" transform="rotate(-20,200,200)"/>
    <path d="M200 230 L100 200 L120 150 Z" transform="rotate(0,200,200)"/>
    <path d="M200 230 L110 180 L130 130 Z" transform="rotate(20,200,200)"/>
    <path d="M200 230 L120 160 L140 110 Z" transform="rotate(40,200,200)"/>
    <path d="M200 230 L130 140 L150 90 Z" transform="rotate(60,200,200)"/>
    <path d="M200 230 L140 120 L160 70 Z" transform="rotate(80,200,200)"/>
  </g>
  <circle cx="200" cy="200" r="70" fill="#FF8C42" stroke="#CC8500" stroke-width="3"/>
  <polygon points="160,140 140,90 180,120" fill="#FF8C42" stroke="#CC8500" stroke-width="2"/>
  <polygon points="240,140 260,90 220,120" fill="#FF8C42" stroke="#CC8500" stroke-width="2"/>
  <polygon points="165,130 150,100 175,115" fill="#FFB347" opacity="0.8"/>
  <polygon points="235,130 250,100 225,115" fill="#FFB347" opacity="0.8"/>
  <circle cx="170" cy="200" r="10" fill="#333333"/>
  <circle cx="230" cy="200" r="10" fill="#333333"/>
  <circle cx="165" cy="195" r="3" fill="white"/>
  <circle cx="225" cy="195" r="3" fill="white"/>
  <polygon points="200,220 195,230 205,230" fill="#333333"/>
  <line x1="140" y1="210" x2="100" y2="205" stroke="#CC8500" stroke-width="2"/>
  <line x1="140" y1="220" x2="100" y2="225" stroke="#CC8500" stroke-width="2"/>
  <line x1="260" y1="210" x2="300" y2="205" stroke="#CC8500" stroke-width="2"/>
  <line x1="260" y1="220" x2="300" y2="225" stroke="#CC8500" stroke-width="2"/>
  <text x="120" y="350" font-family="'Quicksand', 'Arial Rounded', sans-serif" font-size="48" font-weight="600" fill="#333333" letter-spacing="2">kyuby</text>
  <text x="290" y="355" font-family="'Quicksand', 'Arial Rounded', sans-serif" font-size="24" fill="#999999">.com</text>
</svg>
